HIERARCHY
ROOT Hips
{
 OFFSET 0.000000 0.000000 0.000000
 CHANNELS 6 Xposition Yposition Zposition Yrotation Xrotation Zrotation
 JOINT Chest
 {
  OFFSET 0.000000 9.585900 0.002600
  CHANNELS 3 Yrotation Xrotation Zrotation
  JOINT Chest2
  {
   OFFSET 0.000000 9.601200 -0.005300
   CHANNELS 3 Yrotation Xrotation Zrotation
   JOINT Chest3
   {
    OFFSET 0.000000 9.561800 0.000000
    CHANNELS 3 Yrotation Xrotation Zrotation
    JOINT Chest4
    {
     OFFSET 0.000000 9.552100 0.000000
     CHANNELS 3 Yrotation Xrotation Zrotation
     JOINT Neck
     {
      OFFSET 0.000000 14.453000 0.000000
      CHANNELS 3 Yrotation Xrotation Zrotation
      JOINT Head
      {
       OFFSET 0.000000 8.936500 -0.011300
       CHANNELS 3 Yrotation Xrotation Zrotation
       End Site
       {
        OFFSET 0.000000 17.073600 -0.006000
       }
      }
     }
     JOINT RightCollar
     {
      OFFSET -2.921100 9.558500 0.000000
      CHANNELS 3 Yrotation Xrotation Zrotation
      JOINT RightShoulder
      {
       OFFSET -13.519700 0.000000 0.000000
       CHANNELS 3 Yrotation Xrotation Zrotation
       JOINT RightElbow
       {
        OFFSET 0.000000 -29.696600 0.000000
        CHANNELS 3 Yrotation Xrotation Zrotation
        JOINT RightWrist
        {
         OFFSET 0.000000 -24.004700 0.000000
         CHANNELS 3 Yrotation Xrotation Zrotation
         End Site
         {
          OFFSET 0.000000 -17.728500 0.000000
         }
        }
       }
      }
     }
     JOINT LeftCollar
     {
      OFFSET 2.921100 9.558500 0.000000
      CHANNELS 3 Yrotation Xrotation Zrotation
      JOINT LeftShoulder
      {
       OFFSET 13.519700 0.000000 0.000000
       CHANNELS 3 Yrotation Xrotation Zrotation
       JOINT LeftElbow
       {
        OFFSET 0.000000 -29.696600 0.000000
        CHANNELS 3 Yrotation Xrotation Zrotation
        JOINT LeftWrist
        {
         OFFSET 0.000000 -24.004700 0.000000
         CHANNELS 3 Yrotation Xrotation Zrotation
         End Site
         {
          OFFSET 0.000000 -17.728500 0.000000
         }
        }
       }
      }
     }
    }
   }
  }
 }
 JOINT RightHip
 {
  OFFSET -7.771700 -0.012900 -0.001300
  CHANNELS 3 Yrotation Xrotation Zrotation
  JOINT RightKnee
  {
   OFFSET 0.000000 -40.869800 0.001200
   CHANNELS 3 Yrotation Xrotation Zrotation
   JOINT RightAnkle
   {
    OFFSET 0.000000 -39.717900 0.002100
    CHANNELS 3 Yrotation Xrotation Zrotation
    JOINT RightToe
    {
     OFFSET 0.000000 -4.965400 11.033500
     CHANNELS 3 Yrotation Xrotation Zrotation
     End Site
     {
      OFFSET 0.000000 -1.423100 5.872300
     }
    }
   }
  }
 }
 JOINT LeftHip
 {
  OFFSET 7.771700 -0.012900 -0.001300
  CHANNELS 3 Yrotation Xrotation Zrotation
  JOINT LeftKnee
  {
   OFFSET 0.000000 -40.869800 0.001200
   CHANNELS 3 Yrotation Xrotation Zrotation
   JOINT LeftAnkle
   {
    OFFSET 0.000000 -39.717900 0.002100
    CHANNELS 3 Yrotation Xrotation Zrotation
    JOINT LeftToe
    {
     OFFSET 0.000000 -4.965400 11.033500
     CHANNELS 3 Yrotation Xrotation Zrotation
     End Site
     {
      OFFSET 0.000000 -1.423100 5.872300
     }
    }
   }
  }
 }
}
MOTION
Frames: 5
Frame Time: 0.008333
-180.034664 49.194299 13.803078 -177.872542 -32.565382 -6.648338 -1.263002 19.623015 3.531523 -0.212138 2.435390 0.470141 -0.356716 3.996931 0.762189 -1.062506 16.912795 3.157424 4.027817 17.822937 -1.144893 7.793018 -2.507870 -3.430861 -2.468104 -2.238164 -2.202116 3.391482 -12.850138 -15.479296 -48.788413 -57.726178 98.703806 6.372317 6.612006 -19.269619 -1.168873 -3.322537 2.415513 -3.325478 -4.963408 11.653514 55.214927 -82.902629 -85.118129 1.413142 15.729529 12.613647 9.834772 -52.690879 -0.591059 144.285465 81.194578 154.465346 -19.683058 -7.323544 0.514731 0.034750 -0.258944 0.276621 -16.850953 -53.043993 20.116077 -66.361080 63.323119 -73.616459 31.282800 9.963724 17.675215 -0.019748 -0.018673 0.102729
-180.031016 49.207822 13.823164 -177.889543 -32.567936 -6.668467 -1.202192 19.629068 3.585308 -0.210504 2.433948 0.470725 -0.296827 3.997842 0.777870 -1.056304 16.901721 3.166310 3.993975 17.804770 -1.142822 7.730517 -2.557999 -3.419786 -2.468910 -2.223541 -2.173945 3.376345 -12.846195 -15.488825 -48.834261 -57.861759 98.715526 6.370081 6.556328 -19.383104 -0.951026 -3.159832 2.422936 -2.993098 -4.392192 11.132187 57.084885 -82.902312 -87.095436 1.462904 15.623456 12.570561 9.831737 -52.705276 -0.554124 144.828049 81.233968 154.986832 -19.464956 -7.221245 0.466780 0.021034 -0.279707 0.261454 -16.844024 -53.025177 20.158513 -66.285177 63.298151 -73.550241 31.292532 10.003807 17.700231 -0.019433 -0.025809 0.085230
-180.037021 49.218137 13.847789 -177.857088 -32.542669 -6.652815 -1.206768 19.610310 3.573679 -0.156684 2.434974 0.485214 -0.308301 3.990274 0.774653 -1.025156 16.892204 3.179040 3.959589 17.791205 -1.137784 7.666350 -2.585726 -3.400130 -2.471115 -2.205988 -2.144954 3.358332 -12.835586 -15.494232 -48.874550 -57.944979 98.691767 6.403038 6.485037 -19.466563 -0.728123 -2.995483 2.436587 -2.634259 -3.876934 10.675779 58.822366 -82.788375 -89.032199 1.572529 15.498938 12.604143 9.917854 -52.727005 -0.670312 145.341043 81.260666 155.516463 -19.310552 -7.177674 0.454846 0.050247 -0.256678 0.219987 -16.814669 -53.046067 20.114941 -66.162742 63.276593 -73.448796 31.302428 10.043299 17.735913 -0.029244 -0.023507 0.073763
-180.035943 49.230708 13.869846 -177.861303 -32.547573 -6.656870 -1.079778 19.617577 3.652489 -0.180333 2.426848 0.478007 -0.316614 3.983539 0.772392 -0.990258 16.881838 3.191584 3.923043 17.782638 -1.129930 7.593903 -2.591410 -3.373971 -2.474619 -2.183423 -2.115047 3.339528 -12.820021 -15.495833 -48.910860 -58.115131 98.703658 6.344677 6.389082 -19.596236 -0.503732 -2.839315 2.453808 -2.267766 -3.403593 10.280781 60.340253 -82.602535 -90.819016 1.721086 15.356082 12.706870 9.993449 -52.724145 -0.730515 145.504754 81.267690 155.716696 -19.189180 -7.144367 0.433391 -0.017548 -0.227223 0.185432 -16.774082 -53.033361 20.117084 -66.158041 63.244174 -73.426771 31.292251 10.043465 17.696687 -0.010653 0.002253 0.085059
-180.034424 49.241381 13.892951 -177.837823 -32.544800 -6.673414 -1.002520 19.613666 3.714302 -0.232972 2.423893 0.463115 -0.312378 3.980706 0.773059 -0.903536 16.866480 3.212209 3.883533 17.778925 -1.119439 7.516105 -2.595883 -3.347088 -2.479559 -2.157252 -2.087397 3.318822 -12.797686 -15.491426 -48.960370 -58.300380 98.719491 6.291601 6.292757 -19.728403 -0.279222 -2.698585 2.470082 -1.927632 -2.964797 9.949329 61.632592 -82.374105 -92.411525 1.881577 15.204959 12.864244 9.994281 -52.734080 -0.733011 145.440984 81.265333 155.671113 -19.237499 -7.081162 0.372919 -0.018652 -0.224330 0.196094 -16.784021 -53.029861 20.126045 -66.107236 63.235256 -73.382250 31.291670 10.079160 17.698428 -0.009538 -0.014117 0.093194
